<svg width="32" height="32" viewBox="0 0 32 32" fill="none" xmlns="http://www.w3.org/2000/svg">
<g clip-path="url(#clip0_4600_1359)">
<path d="M28 0H4C1.794 0 0 1.794 0 4V22C0 24.206 1.794 26 4 26H15V31C15 31.1978 15.0587 31.391 15.1686 31.5555C15.2785 31.7199 15.4346 31.848 15.6173 31.9237C15.8 31.9993 16.0011 32.0192 16.195 31.9806C16.389 31.942 16.5671 31.8468 16.707 31.707L22.414 26H28C30.206 26 32 24.206 32 22V4C32 1.794 30.206 0 28 0ZM30 22C30 23.103 29.103 24 28 24H22C21.8687 23.9998 21.7386 24.0256 21.6172 24.0759C21.4959 24.1262 21.3857 24.2 21.293 24.293L17 28.586V25C17 24.7348 16.8946 24.4804 16.7071 24.2929C16.5196 24.1054 16.2652 24 16 24H4C2.897 24 2 23.103 2 22V4C2 2.897 2.897 2 4 2H28C29.103 2 30 2.897 30 4V22Z" fill="white"/>
<path d="M15.9998 6.00195C15.6098 6.00195 15.2558 6.22895 15.0918 6.58295L9.0918 19.583L10.9078 20.421L12.9488 16H19.0518L21.0918 20.421L22.9078 19.583L16.9078 6.58295C16.8277 6.40957 16.6996 6.26274 16.5387 6.15979C16.3778 6.05684 16.1908 6.00207 15.9998 6.00195ZM13.8718 14L15.9998 9.38795L18.1278 14H13.8718Z" fill="white"/>
</g>
<defs>
<clipPath id="clip0_4600_1359">
<rect width="32" height="32" fill="white"/>
</clipPath>
</defs>
</svg>
