<svg width="24" height="24" viewBox="0 0 24 24" fill="none" xmlns="http://www.w3.org/2000/svg">
<path fill-rule="evenodd" clip-rule="evenodd" d="M21.491 5.443V8.305C21.5017 9.08038 21.2085 9.82915 20.674 10.391C20.4128 10.6655 20.0994 10.8852 19.7522 11.037C19.405 11.1888 19.0309 11.2697 18.652 11.275H17.488C17.2959 11.2521 17.1189 11.1592 16.9911 11.014C16.8632 10.8687 16.7934 10.6815 16.795 10.488C16.795 10.083 17.095 9.743 17.488 9.7H18.617C18.974 9.698 19.315 9.55 19.565 9.29C19.815 9.03 19.953 8.679 19.948 8.314V5.444C19.938 4.697 19.348 4.094 18.617 4.084H15.804C15.069 4.084 14.474 4.693 14.474 5.444V9.736C14.4693 9.94326 14.3835 10.1404 14.235 10.2851C14.0866 10.4298 13.8873 10.5106 13.68 10.51C13.5782 10.5074 13.4779 10.4844 13.3851 10.4423C13.2924 10.4003 13.209 10.3399 13.14 10.265C12.9983 10.1117 12.9228 9.90865 12.93 9.7V5.443C12.928 4.663 13.23 3.915 13.769 3.363C14.0335 3.09066 14.3498 2.874 14.6993 2.72578C15.0488 2.57757 15.4244 2.5008 15.804 2.5H18.617C20.192 2.538 21.459 3.835 21.491 5.443ZM8.196 2.5H5.383C3.795 2.51 2.51 3.822 2.5 5.443V8.314C2.51 9.934 3.796 11.244 5.383 11.248H8.196C8.57563 11.2485 8.95152 11.173 9.30153 11.026C9.65154 10.879 9.96859 10.6634 10.234 10.392C10.774 9.842 11.079 9.094 11.079 8.314V5.444C11.074 3.82 9.786 2.503 8.196 2.5ZM9.526 8.314C9.532 8.679 9.394 9.03 9.144 9.29C8.894 9.55 8.553 9.698 8.196 9.7H5.383C5.20309 9.70347 5.02437 9.67003 4.85789 9.60175C4.6914 9.53347 4.54067 9.43179 4.415 9.303C4.28756 9.17232 4.18743 9.01756 4.12047 8.84775C4.05351 8.67794 4.02105 8.49649 4.025 8.314V5.444C4.025 5.078 4.169 4.728 4.425 4.472C4.68 4.217 5.025 4.077 5.383 4.084H8.196C8.929 4.089 9.522 4.694 9.526 5.444V8.314ZM15.804 12.752H18.617C20.204 12.756 21.49 14.066 21.5 15.686V18.556C21.49 20.178 20.205 21.49 18.617 21.5H15.804C14.218 21.49 12.935 20.177 12.93 18.557V15.686C12.93 14.066 14.217 12.752 15.804 12.752ZM19.561 19.52C19.811 19.265 19.951 18.918 19.948 18.557V15.686C19.948 15.326 19.808 14.98 19.558 14.725C19.4355 14.5994 19.2892 14.4995 19.1276 14.4311C18.966 14.3628 18.7924 14.3274 18.617 14.327H15.804C15.069 14.327 14.474 14.935 14.474 15.686V18.556C14.471 18.918 14.61 19.266 14.86 19.52C15.11 19.776 15.45 19.918 15.804 19.916H18.617C18.971 19.918 19.311 19.776 19.561 19.52ZM2.5 18.548V15.686C2.5 14.906 2.804 14.158 3.345 13.608C3.61037 13.3365 3.92742 13.1209 4.27743 12.9739C4.62745 12.8269 5.00336 12.7514 5.383 12.752H6.538C6.68347 12.7366 6.83032 12.7629 6.96138 12.8279C7.09243 12.8929 7.20225 12.9939 7.278 13.119C7.35522 13.2455 7.39608 13.3908 7.39608 13.539C7.39608 13.6872 7.35522 13.8325 7.278 13.959C7.20239 14.0843 7.09262 14.1855 6.96156 14.2507C6.83049 14.3159 6.68357 14.3423 6.538 14.327H5.383C4.646 14.327 4.048 14.934 4.043 15.686V18.521C4.04826 18.8765 4.19055 19.2163 4.4402 19.4695C4.68984 19.7227 5.02758 19.8697 5.383 19.88H8.213C8.568 19.882 8.909 19.74 9.16 19.485C9.412 19.23 9.553 18.883 9.553 18.521V14.264C9.52452 14.1093 9.54236 13.9496 9.60427 13.805C9.66617 13.6603 9.7694 13.5372 9.901 13.451C10.0312 13.3666 10.184 13.3238 10.3391 13.3285C10.4941 13.3331 10.6441 13.3849 10.769 13.477C10.8953 13.5708 10.9911 13.6998 11.0444 13.8478C11.0978 13.9958 11.1063 14.1562 11.069 14.309V18.548C11.069 20.173 9.779 21.491 8.187 21.491H5.383C3.805 21.458 2.533 20.159 2.5 18.548Z" fill="white"/>
</svg>
