<svg width="32" height="32" viewBox="0 0 32 32" fill="none" xmlns="http://www.w3.org/2000/svg">
<path d="M26.444 13.15L23.844 10.55L12.552 21.844L15.158 24.45L26.444 13.15ZM27.151 12.443L28.88 10.712C29.27 10.322 29.267 9.68703 28.875 9.29603L27.695 8.11903C27.6022 8.02556 27.492 7.95131 27.3705 7.90055C27.249 7.84979 27.1187 7.82352 26.9871 7.82324C26.8554 7.82296 26.725 7.84868 26.6033 7.89893C26.4816 7.94917 26.3711 8.02295 26.278 8.11603L24.551 9.84403L27.151 12.443ZM11.905 22.611L11.265 25.724L14.4 25.107L11.905 22.611ZM22.001 19V28.996C22.002 29.2589 21.9511 29.5194 21.8512 29.7626C21.7513 30.0057 21.6044 30.2267 21.4188 30.4129C21.2333 30.5992 21.0128 30.7469 20.77 30.8476C20.5272 30.9484 20.2668 31.0002 20.004 31H4.99896C4.73616 30.9999 4.47596 30.9479 4.23328 30.8471C3.99059 30.7462 3.77019 30.5985 3.58468 30.4124C3.39918 30.2262 3.25222 30.0053 3.15223 29.7622C3.05224 29.5192 3.00117 29.2588 3.00196 28.996V8.00303C3.00196 6.88903 3.89596 5.99903 4.99896 5.99903H6.00196C6.00496 4.89003 6.89996 3.99903 8.00496 3.99903H9.00196C9.00222 3.60438 9.0803 3.21366 9.23172 2.84921C9.38314 2.48477 9.60493 2.15375 9.88441 1.87511C10.1639 1.59647 10.4956 1.37567 10.8605 1.22534C11.2254 1.07501 11.6163 0.998111 12.011 0.999032H12.993C13.7896 0.9985 14.5539 1.31411 15.1181 1.87658C15.6822 2.43904 16.0001 3.20239 16.002 3.99903H16.999C18.107 3.99903 18.999 4.89403 19.002 5.99903H20.005C21.112 5.99903 22.002 6.89603 22.002 8.00303V10.999L25.582 7.41903C25.7666 7.2317 25.9866 7.08277 26.2291 6.98081C26.4716 6.87885 26.7318 6.82588 26.9949 6.82495C27.2579 6.82402 27.5186 6.87515 27.7618 6.97539C28.005 7.07564 28.226 7.22301 28.412 7.40903L29.592 8.58803C29.9655 8.96488 30.1742 9.47452 30.1723 10.0051C30.1704 10.5357 29.9581 11.0438 29.582 11.418L22.002 18.998L22.001 19ZM21.001 12V8.00303C21.001 7.44903 20.546 7.00003 20.001 7.00003H19.001C19.0008 7.26289 18.9489 7.52315 18.8482 7.76594C18.7474 8.00872 18.5998 8.22928 18.4138 8.41501C18.2278 8.60074 18.007 8.74801 17.7641 8.84838C17.5212 8.94876 17.2608 9.00029 16.998 9.00003H8.00396C6.89596 9.00003 6.00396 8.10503 6.00096 7.00003H5.00096C4.44896 7.00003 4.00096 7.43903 4.00096 8.00303V28.997C4.00096 29.551 4.45596 30 5.00096 30H20.001C20.553 30 21.001 29.561 21.001 28.997V20L15.001 26L10.001 27L11.001 22L21.001 12ZM10.001 5.00003H7.99696C7.86588 4.9999 7.73605 5.02567 7.61496 5.07586C7.49386 5.12606 7.38388 5.19969 7.29133 5.29252C7.19877 5.38535 7.12548 5.49556 7.07565 5.6168C7.02582 5.73805 7.00044 5.86795 7.00096 5.99903V7.00103C7.00096 7.55303 7.44596 8.00003 7.99696 8.00003H17.006C17.556 8.00003 18.002 7.55703 18.002 7.00103V5.99903C18.0022 5.86802 17.9767 5.73824 17.9267 5.61711C17.8768 5.49599 17.8035 5.38589 17.711 5.29311C17.6185 5.20033 17.5086 5.12669 17.3877 5.0764C17.2667 5.02611 17.137 5.00016 17.006 5.00003H15.002V3.99803C15.0017 3.73513 14.9496 3.47487 14.8487 3.23212C14.7477 2.98938 14.5999 2.76891 14.4137 2.58334C14.2275 2.39777 14.0065 2.25073 13.7634 2.15064C13.5203 2.05055 13.2599 1.99937 12.997 2.00003H12.007C11.4763 1.99976 10.9673 2.20996 10.5914 2.58451C10.2155 2.95907 10.0036 3.4674 10.002 3.99803V5.00003H10.001ZM12.501 5.00003C12.6336 5.00003 12.7607 4.94735 12.8545 4.85358C12.9483 4.75982 13.001 4.63264 13.001 4.50003C13.001 4.36742 12.9483 4.24025 12.8545 4.14648C12.7607 4.05271 12.6336 4.00003 12.501 4.00003C12.3684 4.00003 12.2412 4.05271 12.1474 4.14648C12.0536 4.24025 12.001 4.36742 12.001 4.50003C12.001 4.63264 12.0536 4.75982 12.1474 4.85358C12.2412 4.94735 12.3684 5.00003 12.501 5.00003Z" fill="white"/>
</svg>
