<svg width="32" height="32" viewBox="0 0 32 32" fill="none" xmlns="http://www.w3.org/2000/svg">
<path d="M15.9992 30.2899C15.8097 30.3001 15.6205 30.2656 15.4468 30.1892C15.273 30.1127 15.1197 29.9965 14.9992 29.8499C14.7286 29.5369 14.394 29.2856 14.0179 29.1131C13.6418 28.9405 13.233 28.8508 12.8192 28.8499C12.3742 28.8515 11.9357 28.9577 11.5392 29.1599C11.3605 29.2428 11.1663 29.2871 10.9692 29.2899C10.7029 29.2903 10.4434 29.2063 10.2278 29.05C10.0122 28.8937 9.85166 28.6731 9.76924 28.4199C9.5835 27.8411 9.21937 27.3359 8.72899 26.9766C8.23861 26.6173 7.64713 26.4225 7.03924 26.4199H6.73924C6.56517 26.4199 6.39292 26.3845 6.23301 26.3157C6.07311 26.247 5.92891 26.1463 5.80924 26.0199C5.69093 25.8934 5.60044 25.7435 5.5436 25.5798C5.48677 25.4162 5.46484 25.2425 5.47924 25.0699C5.52125 24.427 5.34726 23.7886 4.98491 23.2559C4.62255 22.7232 4.0926 22.3269 3.47924 22.1299C3.30635 22.0732 3.14779 21.9798 3.01444 21.8561C2.8811 21.7323 2.77613 21.5811 2.70677 21.4129C2.63741 21.2447 2.60528 21.0635 2.61261 20.8818C2.61995 20.7 2.66656 20.5219 2.74924 20.3599C3.01926 19.808 3.10571 19.1842 2.99596 18.5797C2.88621 17.9752 2.58602 17.4216 2.13924 16.9999C2.0018 16.8816 1.89152 16.735 1.81591 16.5702C1.74031 16.4054 1.70117 16.2262 1.70117 16.0449C1.70117 15.8636 1.74031 15.6844 1.81591 15.5195C1.89152 15.3547 2.0018 15.2082 2.13924 15.0899C2.62244 14.6697 2.95238 14.1009 3.07727 13.4728C3.20216 12.8447 3.11492 12.193 2.82924 11.6199C2.74659 11.4586 2.70001 11.2812 2.69274 11.1001C2.68547 10.919 2.71767 10.7384 2.78711 10.571C2.85656 10.4036 2.96158 10.2533 3.09491 10.1305C3.22824 10.0077 3.38667 9.91535 3.55924 9.85988C4.1726 9.66286 4.70255 9.26654 5.06491 8.73388C5.42726 8.20121 5.60125 7.56274 5.55924 6.91988C5.53749 6.7392 5.55578 6.55594 5.61281 6.38311C5.66984 6.21029 5.76422 6.05214 5.88924 5.91988C6.00841 5.79213 6.15229 5.68991 6.31216 5.61943C6.47202 5.54896 6.64454 5.51169 6.81924 5.50988H7.11924C7.7275 5.50883 8.31971 5.31455 8.81039 4.95508C9.30107 4.59561 9.66485 4.08953 9.84924 3.50988C9.90762 3.33813 10.0018 3.18075 10.1257 3.04816C10.2495 2.91558 10.4 2.81084 10.5674 2.74086C10.7348 2.67089 10.9151 2.63729 11.0964 2.6423C11.2778 2.6473 11.456 2.69079 11.6192 2.76988C12.0157 2.97209 12.4542 3.07827 12.8992 3.07988C13.3133 3.08096 13.7227 2.9921 14.0991 2.81944C14.4755 2.64679 14.8099 2.39445 15.0792 2.07988C15.2022 1.93687 15.3562 1.8238 15.5295 1.74929C15.7028 1.67477 15.8908 1.64078 16.0792 1.64988C16.2594 1.64759 16.4379 1.68492 16.6021 1.75923C16.7662 1.83353 16.9121 1.943 17.0292 2.07988C17.2985 2.39445 17.633 2.64679 18.0093 2.81944C18.3857 2.9921 18.7951 3.08096 19.2092 3.07988C19.6573 3.0769 20.0987 2.97083 20.4992 2.76988C20.6586 2.70911 20.8288 2.68187 20.9992 2.68988C21.2655 2.68949 21.5251 2.77347 21.7407 2.92977C21.9563 3.08608 22.1168 3.30667 22.1992 3.55988C22.385 4.13871 22.7491 4.64391 23.2395 5.00317C23.7299 5.36242 24.3214 5.55729 24.9292 5.55988H25.2292C25.4042 5.5599 25.5773 5.59636 25.7374 5.66695C25.8975 5.73754 26.0412 5.84071 26.1592 5.96988C26.2843 6.10214 26.3786 6.26029 26.4357 6.43311C26.4927 6.60594 26.511 6.7892 26.4892 6.96988C26.449 7.61241 26.6237 8.25007 26.9858 8.78237C27.3479 9.31467 27.8768 9.71135 28.4892 9.90988C28.661 9.96609 28.8186 10.0586 28.9515 10.1811C29.0844 10.3036 29.1893 10.4532 29.2592 10.6199C29.3335 10.785 29.3719 10.9639 29.3719 11.1449C29.3719 11.3259 29.3335 11.5048 29.2592 11.6699C28.9951 12.2172 28.9109 12.8341 29.0186 13.4323C29.1264 14.0304 29.4207 14.5791 29.8592 14.9999C30 15.1247 30.1115 15.2791 30.1858 15.4519C30.2602 15.6247 30.2955 15.8118 30.2892 15.9999C30.2983 16.1883 30.2643 16.3763 30.1898 16.5496C30.1153 16.7229 30.0023 16.8769 29.8592 16.9999C29.3754 17.4174 29.0448 17.9846 28.9198 18.6113C28.7948 19.2381 28.8826 19.8887 29.1692 20.4599C29.2431 20.6268 29.2812 20.8073 29.2812 20.9899C29.2812 21.1724 29.2431 21.353 29.1692 21.5199C29.0977 21.6855 28.9922 21.8342 28.8595 21.9565C28.7269 22.0788 28.5701 22.172 28.3992 22.2299C27.7859 22.4269 27.2559 22.8232 26.8936 23.3559C26.5312 23.8886 26.3572 24.527 26.3992 25.1699C26.4132 25.3431 26.3908 25.5173 26.3336 25.6814C26.2764 25.8455 26.1856 25.9958 26.0671 26.1229C25.9485 26.2499 25.8048 26.3508 25.645 26.4192C25.4852 26.4875 25.313 26.5218 25.1392 26.5199H24.8392C24.2317 26.524 23.641 26.7195 23.1509 27.0785C22.6608 27.4375 22.2963 27.9419 22.1092 28.5199C22.0268 28.7731 21.8663 28.9937 21.6507 29.15C21.4351 29.3063 21.1755 29.3903 20.9092 29.3899C20.7156 29.386 20.5248 29.3418 20.3492 29.2599C19.9487 29.0589 19.5073 28.9529 19.0592 28.9499C18.6455 28.9508 18.2367 29.0405 17.8606 29.2131C17.4845 29.3856 17.1498 29.6369 16.8792 29.9499C16.7628 30.0626 16.6249 30.1508 16.4737 30.2092C16.3226 30.2676 16.1612 30.295 15.9992 30.2899Z" stroke="white" stroke-linecap="round" stroke-linejoin="round"/>
<path d="M7.46094 18.9301V12.7501H11.9009V13.8401H8.60094V15.5801H11.7309V16.6301H8.60094V18.9301H7.46094ZM17.6909 18.9301L17.1609 17.7601H13.8909L13.3509 18.9301H12.1209L14.8909 12.7401H16.1509L18.9309 18.9301H17.6909ZM14.3409 16.7001H16.7109L15.5209 14.0001L14.3409 16.7001ZM23.8909 18.5801L23.7609 18.6501C23.2579 18.9216 22.6923 19.0561 22.1209 19.0401C21.693 19.0684 21.2639 19.0045 20.8627 18.853C20.4615 18.7014 20.0975 18.4655 19.7952 18.1613C19.4929 17.8571 19.2593 17.4916 19.1102 17.0894C18.9611 16.6873 18.9 16.2578 18.9309 15.8301C18.9127 14.9515 19.2393 14.1007 19.8409 13.4601C20.1427 13.1688 20.5002 12.9416 20.892 12.7921C21.2839 12.6426 21.7019 12.5739 22.1209 12.5901C22.5437 12.5654 22.9669 12.6304 23.3627 12.781C23.7585 12.9315 24.1179 13.1642 24.4174 13.4636C24.7168 13.7631 24.9495 14.1225 25.1 14.5183C25.2506 14.9141 25.3157 15.3373 25.2909 15.7601C25.3083 16.4267 25.1385 17.0849 24.8009 17.6601L24.7109 17.7901L25.4509 18.5201L24.6409 19.3201L23.8909 18.5801ZM22.1209 13.5801C21.8537 13.5684 21.5869 13.6121 21.3374 13.7085C21.0879 13.8049 20.861 13.9518 20.6709 14.1401C20.461 14.3647 20.298 14.6291 20.1915 14.9176C20.0851 15.206 20.0373 15.5129 20.0509 15.8201C20.0251 16.1034 20.06 16.3891 20.1534 16.6579C20.2468 16.9266 20.3964 17.1724 20.5924 17.3788C20.7883 17.5851 21.026 17.7473 21.2896 17.8544C21.5532 17.9615 21.8366 18.0112 22.1209 18.0001C22.3904 18.0079 22.6584 17.9594 22.9081 17.8578C23.1577 17.7562 23.3835 17.6038 23.5709 17.4101C23.7769 17.1835 23.9359 16.9184 24.0389 16.6301C24.1418 16.3417 24.1867 16.0358 24.1709 15.7301C24.1877 15.4533 24.1467 15.176 24.0505 14.9158C23.9543 14.6557 23.8051 14.4184 23.6123 14.2191C23.4196 14.0197 23.1874 13.8626 22.9307 13.7578C22.6739 13.6529 22.3982 13.6026 22.1209 13.6101V13.5801Z" fill="white"/>
</svg>
