<svg width="32" height="32" viewBox="0 0 32 32" fill="none" xmlns="http://www.w3.org/2000/svg">
<path d="M17.5765 5.23242C16.3425 5.56322 15.6618 6.78979 15.8441 8.02539C15.2453 8.47889 14.8561 9.14279 14.8109 9.86719C13.733 10.0939 12.8258 10.819 12.3617 11.8164C11.6958 11.451 10.8828 11.4409 10.1586 11.7423C9.70624 11.3764 9.17726 11.0973 8.59019 11.1057H8.58819C7.94093 11.1187 7.32003 11.3773 6.85967 11.838C6.51743 12.1803 6.30943 12.5935 6.22295 13.0294C4.4362 13.1834 3.01983 14.6747 3.01983 16.5001C3.02034 16.7433 3.05513 16.9821 3.10573 17.2189C3.04913 17.3029 3.01923 17.4012 3.01983 17.5021C3.02183 18.9108 3.39265 20.2687 4.04131 21.5236C4.11151 21.6857 4.18634 21.8006 4.24444 21.9025C5.13374 23.4492 6.4719 24.8124 8.17413 25.8536C8.07853 26.0504 8.01983 26.2684 8.01983 26.5001C8.01983 26.6764 8.05653 26.8424 8.11353 27.0001H4.81275C4.13659 26.9901 4.13659 28.0097 4.81275 28.0001H9.51978H30.512C30.5454 28.0002 30.5788 28.0001 30.6116 27.9901C31.2036 27.8707 31.1159 26.9991 30.512 27H23.926C23.983 26.8422 24.0197 26.6762 24.0197 26.5C24.0197 26.2723 23.9638 26.0574 23.8713 25.8632C24.4177 25.5289 24.9311 25.1643 25.4006 24.7694C25.9483 24.3434 25.2681 23.5374 24.7561 24.0057C24.3296 24.3645 23.8574 24.6933 23.3576 25H8.70332C7.35623 24.1767 6.28402 23.149 5.50801 22H9.30879C9.98495 22.01 9.98495 20.9904 9.30879 21H4.92012C4.75813 20.6736 4.6163 20.3397 4.5002 20H11.5119C12.1881 20.01 12.1881 18.9904 11.5119 19H4.23067C4.16417 18.67 4.11726 18.3367 4.09395 18L27.9382 18.0001C27.8942 18.6457 27.8322 19.2904 27.6277 19.9064C27.4167 20.5392 28.366 20.8556 28.5769 20.2228C28.8677 19.3472 29.0201 18.4311 29.0203 17.5001C29.0202 17.224 28.7964 17.0001 28.5203 17.0001H28.0183C28.018 16.9901 28.0186 16.9831 28.0183 16.9751C28.3844 16.7579 28.754 16.531 28.9695 16.1587C29.1976 15.7646 29.2227 15.3051 29.2156 14.854C29.6096 14.6357 29.9935 14.3859 30.2214 13.9927H30.2234C30.7316 13.1093 30.5637 12.053 29.9559 11.2622C30.4639 10.1123 30.1203 8.74022 29.0086 8.09802H29.0066C28.9346 8.05702 28.8533 8.0341 28.7703 8.0321C28.5436 7.9297 28.3061 7.86418 28.0593 7.83288C27.9853 7.78888 27.9013 7.76482 27.8152 7.76282C26.9768 7.74382 26.2217 8.18219 25.7449 8.86059C24.7716 8.75169 23.7935 9.12881 23.2917 9.99731C23.1857 10.1808 23.126 10.3788 23.0906 10.5831C22.9397 10.3147 22.7273 10.0802 22.5027 9.86242C22.626 9.43052 22.7208 8.98229 22.6042 8.54419C22.3421 7.56929 21.4871 6.94961 20.5105 6.80981C20.1887 5.94901 19.4405 5.37201 18.5339 5.24731C18.2421 5.17231 17.9291 5.17342 17.5765 5.23242ZM18.2371 6.14441H18.2391C18.913 6.15441 19.4944 6.60141 19.6707 7.25171C19.6737 7.26271 19.6757 7.27776 19.6767 7.28076C19.7205 7.52066 19.9309 7.69392 20.1747 7.69092C20.8617 7.68092 21.4612 8.13689 21.6396 8.80029H21.6376C21.7251 9.12909 21.6982 9.47697 21.5614 9.78857C21.4676 10.0029 21.5349 10.2537 21.7235 10.3921C21.9985 10.5941 22.1979 10.8846 22.286 11.2144H22.284C22.3367 11.4123 22.3382 11.6187 22.3055 11.8257C22.206 11.9257 22.1142 12.0326 22.0418 12.1577C21.8136 12.5519 21.7885 13.0112 21.7957 13.4624C21.4498 13.6549 21.1167 13.8776 20.8856 14.1948C20.7157 13.8755 20.5075 13.5803 20.2586 13.3179L18.6961 7.48779C18.6415 7.26889 18.4471 7.11368 18.2215 7.10888C17.8849 7.09888 17.6372 7.4218 17.7293 7.7456L18.9754 12.3999C18.9432 12.3849 18.9143 12.3648 18.8817 12.3508C18.4899 10.9464 17.2668 9.93399 15.8134 9.81189C15.86 9.33809 16.1216 8.90432 16.5555 8.65942C16.7593 8.54352 16.8551 8.30161 16.786 8.07751C16.78 8.05851 16.778 8.04846 16.778 8.04846C16.777 8.04846 16.775 8.03842 16.774 8.03442C16.5583 7.22912 17.0278 6.41313 17.8326 6.19653C17.9619 6.16253 18.0984 6.14441 18.2371 6.14441ZM27.7917 8.75952C28.043 8.76952 28.2888 8.83461 28.5066 8.96081H28.5086H28.5106C29.2299 9.37811 29.4718 10.2843 29.0575 11.0056C29.0535 11.0156 29.0505 11.0177 29.0458 11.0237C28.9038 11.2243 28.9286 11.4984 29.1044 11.6702C29.5953 12.1499 29.6976 12.8933 29.3563 13.4885C29.1855 13.7833 28.92 14.0116 28.6024 14.135C28.3845 14.22 28.2547 14.4447 28.2899 14.676C28.3416 15.0139 28.2756 15.3588 28.1044 15.6545C27.9339 15.9491 27.6695 16.1773 27.3524 16.301C27.1345 16.386 27.0047 16.6107 27.0399 16.842C27.0479 16.894 27.0469 16.946 27.0499 16.9983H24.4444L28.2101 10.4788C28.4076 10.147 28.1705 9.7259 27.7843 9.7229C27.6014 9.7229 27.4322 9.81886 27.3429 9.97876L23.2901 16.9983H22.0597C22.0587 16.8652 22.0045 16.7379 21.9093 16.6448C21.4184 16.1643 21.3164 15.4177 21.6593 14.8225C21.8298 14.5292 22.0951 14.3013 22.4112 14.178C22.6291 14.093 22.7589 13.8682 22.7237 13.637C22.672 13.2993 22.7361 12.9541 22.9073 12.6584C23.0778 12.3638 23.3443 12.1357 23.6612 12.012C23.8791 11.927 24.0089 11.7021 23.9737 11.4709C23.9223 11.1336 23.9865 10.7897 24.1573 10.4944H24.1593C24.5031 9.89938 25.1988 9.61427 25.8605 9.79907C26.0912 9.86407 26.3353 9.75606 26.4425 9.54126C26.4485 9.53026 26.4528 9.52025 26.4581 9.51025C26.7327 9.03435 27.2422 8.74682 27.7917 8.75952ZM15.5261 10.787C16.4451 10.787 17.2564 11.2852 17.6902 12.0466C17.5229 12.0266 17.3587 11.9977 17.1863 11.9977C16.9101 11.9978 16.6863 12.2216 16.6863 12.4977V16.0621C16.603 15.942 16.5115 15.8274 16.407 15.7223C16.0844 15.3997 15.6465 15.2573 15.2078 15.1481C15.0988 14.7132 14.9586 14.2775 14.6394 13.9567C14.3172 13.6343 13.8802 13.4918 13.4421 13.3824C13.3712 13.0999 13.2814 12.8207 13.1433 12.5699C13.459 11.52 14.4146 10.7877 15.5261 10.787ZM8.60619 12.1034H8.60819C9.01159 12.0934 9.39834 12.2564 9.68436 12.5409C9.69136 12.5509 9.69656 12.5529 9.70976 12.5679C9.86792 12.7482 10.1318 12.7907 10.3387 12.6693C10.9297 12.3192 11.6765 12.4128 12.1629 12.8979C12.4027 13.1387 12.5533 13.4525 12.5906 13.7904C12.6159 14.024 12.8004 14.2086 13.034 14.2339C13.3731 14.2709 13.689 14.4226 13.9305 14.6636C14.1705 14.9048 14.3212 15.2198 14.3582 15.5581C14.3835 15.7917 14.568 15.9762 14.8016 16.0015C15.1407 16.0385 15.4566 16.1903 15.698 16.4312C15.8587 16.5926 15.9742 16.7868 16.0477 16.9976H12.7273L8.95384 13.2241C8.85934 13.1271 8.72966 13.0732 8.59447 13.0737C8.14739 13.0737 7.92729 13.6185 8.24681 13.9312L11.3132 16.9976H7.81908C7.43881 16.5157 7.37109 15.8574 7.69017 15.3179C7.80994 15.1169 7.77427 14.8595 7.60427 14.6987C7.59227 14.6877 7.57927 14.6758 7.56717 14.6638C6.97736 14.0739 6.97736 13.1325 7.56717 12.5426C7.84198 12.2676 8.21366 12.1115 8.60619 12.1034ZM17.6863 13.1952C19.1727 13.4509 20.3542 14.5318 20.3542 15.9978C20.3542 16.3492 20.2673 16.6793 20.1433 16.9978H17.6863V13.1952ZM6.239 14.0233C6.3235 14.4192 6.49524 14.8041 6.76244 15.1366C6.51069 15.742 6.47841 16.4063 6.68624 16.9978H4.07882C4.04452 16.8321 4.02062 16.6654 4.02022 16.4958C4.02022 15.2055 4.98786 14.1635 6.239 14.0233ZM27.2195 21.3806C27.0548 21.3926 26.9064 21.4843 26.823 21.6267C26.5998 21.9919 26.3486 22.3464 26.0671 22.6874C25.5733 23.2059 26.4215 23.9055 26.8367 23.322C27.1472 22.9456 27.428 22.5548 27.6765 22.1483C27.8838 21.8214 27.6571 21.393 27.2703 21.3806C27.2534 21.3798 27.2364 21.3798 27.2195 21.3806ZM9.52025 25.9978H22.5203C22.8059 25.9978 23.0203 26.2121 23.0203 26.4978C23.0203 26.7833 22.8059 26.9978 22.5203 26.9978H9.52025C9.23462 26.9978 9.02025 26.7833 9.02025 26.4978C9.02025 26.2121 9.23462 25.9978 9.52025 25.9978ZM1.46166 26.9978C0.794993 27.0318 0.845773 28.0317 1.51246 27.9978H2.46949C3.14524 28.0098 3.14922 26.9913 2.47349 26.9978C2.47249 26.9978 2.47049 26.9978 2.46949 26.9978H1.51246C1.49556 26.9969 1.47856 26.9969 1.46166 26.9978Z" fill="white"/>
</svg>
